<?xml version="1.0" encoding="utf-8"?>
<!-- Generator: Adobe Illustrator 22.0.0, SVG Export Plug-In . SVG Version: 6.00 Build 0)  -->
<svg version="1.1" id="Capa_1" xmlns="http://www.w3.org/2000/svg" xmlns:xlink="http://www.w3.org/1999/xlink" x="0px" y="0px"
	 viewBox="0 0 841.9 595.3" style="enable-background:new 0 0 841.9 595.3;" xml:space="preserve">
<style type="text/css">
	.st0{fill:#FFFFFF;}
	.st1{fill:#FFED00;}
</style>
<g>
	<path class="st0" d="M350.4,407.4c0-65.3,0-130.3,0-195.5c0.9,0,1.7-0.1,2.5-0.1c19.1,0.1,38.2,0.1,57.3,0.4
		c9.1,0.2,18.2,0.7,27.1,2.8c3.3,0.8,6.6,1.9,9.7,3.3c11.8,5.6,18.2,15.1,19.8,28c1.3,10.6,1.3,21.2,1.3,31.9
		c0.1,25.3,0.1,50.5,0,75.8c0,8.1-0.2,16.2-1.3,24.2c-0.3,2.1-0.7,4.3-1.2,6.3c-2.9,10.8-10.4,16.9-20.7,20
		c-5.6,1.7-11.4,2.3-17.3,2.4c-11.8,0.2-23.7,0.3-35.5,0.4c-13,0.1-25.9,0-38.9,0C352.3,407.4,351.5,407.4,350.4,407.4z
		 M401.3,245.3c0,42.9,0,85.7,0,128.8c2.5-0.3,4.9-0.6,7.2-1c4.5-0.7,6.9-3.5,7.4-7.9c0.4-3.4,0.9-6.8,1-10.2
		c0.1-29.7,0.2-59.3,0.2-89c0-4.2-0.3-8.5-0.7-12.7c-0.3-3-1.8-5.4-4.6-6.5C408.5,245.4,405,245.4,401.3,245.3z"/>
	<path class="st0" d="M191.3,320.9c0,28.7,0,57.4,0,86.1c-1.8,0.6-40,0.6-42.5,0.1c0-65,0-129.9,0-195.1c14.2,0,28.2,0,42.6,0
		c9.3,28.6,18.5,57.2,27.8,85.9c0.1,0,0.3,0,0.4-0.1c0-28.6,0-57.1,0-85.6c1.9-0.5,38.8-0.7,42.3-0.3c0.5,1.7,0.6,192.4,0.1,195.3
		c-14.7,0-29.4,0-44.4,0c-8.6-28.7-17.2-57.6-25.8-86.5C191.6,320.8,191.5,320.9,191.3,320.9z"/>
	<path class="st0" d="M706.6,407.3c-17.6,0-34.7,0-52.1,0c-0.9-11.6-1.8-23.1-2.7-34.8c-6,0-11.9,0-18,0c-1,11.6-2,23.1-3,34.7
		c-17.6,0-35,0-52.7,0c8.6-65.2,17.2-130.1,25.8-195.1c2-0.5,71.1-0.6,73.6-0.1C687.1,277.1,696.8,342.1,706.6,407.3z M650.1,337.4
		c-2.5-26.6-5-52.9-7.4-79.3c-3.8,26.3-7.4,52.6-9.6,79.3C638.9,337.4,644.4,337.4,650.1,337.4z"/>
	<path class="st0" d="M569.4,325.3c-10.5,0-20.9,0-31.4,0c0,14.3,0,28.4,0,42.8c12.3,0,24.6,0,37,0c0,13.1,0,26.1,0,39.1
		c-29.4,0-58.6,0-88,0c0-65.1,0-130.1,0-195c1.7-0.5,80.7-0.7,84.3-0.2c0.5,1.7,0.7,35,0.2,39c-11.1,0-22.2,0-33.5,0
		c0,12.4,0,24.5,0,37c2.5,0,5.1,0,7.7,0c2.6,0,5.3,0,7.9,0c2.6,0,5.1,0,7.7,0c2.6,0,5.3,0,8.1,0
		C569.4,300.4,569.4,312.7,569.4,325.3z"/>
	<path class="st0" d="M281.1,230.6c16.7,0,33.3,0,49.8,0c0.1,0.1,0.2,0.2,0.2,0.2c0,0.1,0.1,0.1,0.1,0.2c0.1,0.6,0.1,1.3,0.1,1.9
		c0,57.4,0,114.9-0.1,172.3c0,0.1-0.1,0.3-0.3,0.6c-16.5,0-33.1,0-49.9,0C281.1,347.5,281.1,289.2,281.1,230.6z"/>
	<path class="st1" d="M250.5,151.8c2.7,1.3,3.6,4.3,5.8,6.2c2-1.6,3.2-3.8,3.5-6.2c1.2-10.7,4.9-20.6,9.1-30.4
		c7.5-17.4,16.6-33.9,28.1-49c3.1-4.1,6.7-7.8,10.2-11.4c2.5-2.5,5.4-4.5,9.1-5c0.3,0,0.6-0.1,0.9-0.1c0.1,0,0.3,0.1,0.7,0.4
		c-0.5,0.7-0.8,1.5-1.4,2c-6.4,6.4-7.3,14.3-6,22.7c1.6,10.3,6.2,19,13.7,26.3c8.9,8.7,16.6,18.4,22.3,29.6
		c3.7,7.4,6.4,15.2,7.3,23.5c1.7,16.8-3.9,30.7-17.5,41c-2.8,2.2-6,4-9.1,5.8c-1.6,0.9-3.6,1.3-5.4,1.8c-0.6,0.1-1.6-0.1-1.9-0.5
		c-0.3-0.4-0.2-1.4,0.1-1.9c0.9-1.4,2-2.7,3.1-3.9c1.9-2.1,3.4-4.4,4-7.2c0.3-1.5,0.2-2.8-0.1-4.2c-0.7-2.7-1.2-5.4-2-8.1
		c-0.3-1.2-0.8-2.5-1.6-3.5c-2.3-3.1-4.6-6.1-7.1-9.1c-2.4-2.9-4.8-5.8-6.5-9.1c-1.2-2.4-2.1-4.8-1-7.6c0.2-0.6,0.1-1.3,0.1-1.9
		c-1.4-0.6-2.3-0.1-3.2,0.6c-1.6,1.2-3.2,2.4-4.6,3.8c-5.1,4.9-9.1,10.7-12.2,17.1c-2.3,4.8-3.3,9.9-2.9,15.1
		c0.5,5.9,1.2,11.8,1.8,17.6c0.2,1.8,0.2,3.6,0.4,5.8c-1.1-0.4-1.8-0.7-2.6-1c-2.6-1.1-5.1-2.3-7.7-3.3c-7.8-3.1-14-8.3-18.8-15.1
		c-6.6-9.4-10.4-19.7-10.1-31.4c0.1-2.2,0.1-4.3,0.1-6.5C249.4,153.6,249.4,152.5,250.5,151.8z"/>
	<path class="st1" d="M576.3,443.5c3.2,0,6,0,9,0c0,3.1,0,6,0,9c2.8,0,5.5,0,8.4,0c0-2.8,0-5.5,0-8.6c3.1,0,5.9,0,8.9,0
		c0-3.1,0-5.9,0-8.8c6.1,0,11.9,0,17.8,0c0.4,1.6,0.6,59.2,0.1,62.6c-5.7,0-11.4,0-17.5,0c-0.1-8.8,0-17.6,0-26.6
		c-2.9,0-5.6,0-8.5,0c0,2.9,0,5.7,0,8.6c-3.1,0-6,0-9,0c0-2.9,0-5.6,0-8.7c-2.9-0.2-5.7-0.1-8.6-0.1c0,9,0,17.7,0,26.7
		c-6.2,0-12.1,0-18.2,0c0-20.9,0-41.6,0-62.5c5.8,0,11.5,0,17.5,0C576.3,437.7,576.3,440.5,576.3,443.5z"/>
	<path class="st1" d="M216.6,435c14.7,0,29.2,0,44.1,0c0,2.8,0,5.5,0,8.5c3.1,0,5.8,0,8.9,0c0,3,0,5.7,0,8.8
		c3.1,0.1,5.9,0.1,8.9,0.2c0,9.1,0,18,0,27.3c-2.7,0-5.3,0-8.3,0c0,3.1,0,5.8,0,8.8c-3,0-5.7,0-8.8,0c0,3.1,0,6,0,9.1
		c-15.1,0-29.8,0-44.6,0C216.3,496,216.1,438.3,216.6,435z M251.8,444.1c-6,0-11.5,0-17.2,0c0,14.9,0,29.6,0,44.3
		c3.3,0.4,15.8,0.3,17.7-0.2c0-2.8,0-5.6,0-8.7c2.9,0,5.5,0,8.1,0c0-9.1,0-17.9,0-27c-2.9,0-5.6,0-8.6,0
		C251.8,449.6,251.8,446.9,251.8,444.1z"/>
	<path class="st1" d="M552.2,452.3c0,15.4,0,30.3,0,45.4c-5.8,0-11.6,0-17.6,0c0-5.8,0-11.6,0-17.6c-8.8,0-17.3,0-26.1,0
		c0,5.9,0,11.6,0,17.6c-6.2,0-12,0-18.1,0c0-14.9,0-29.7,0-44.9c2.7,0,5.3,0,8.3,0c0-3.1,0-5.8,0-8.9c3.1,0,5.9,0,8.9,0
		c0-3.1,0-5.9,0-8.8c9,0,17.8,0,26.9,0c0,2.8,0,5.5,0,8.4c3.1,0,5.9,0,9,0c0,3,0,5.8,0,8.8C546.5,452.3,549.2,452.3,552.2,452.3z
		 M508.3,470.3c8.7,0,17.3,0,26,0c0-5.9,0-11.7,0-17.7c-2.9,0-5.6,0-8.7,0c0-3,0-5.7,0-8.5c-3.1,0-5.9,0-8.9,0c0,3,0,5.9,0,8.8
		c-3,0.4-5.7-0.2-8.3,0.4C508.3,459,508.3,464.6,508.3,470.3z"/>
	<path class="st1" d="M361.9,435c15.1,0,29.9,0,44.8,0c0,2.8,0,5.5,0,8.4c3,0,5.7,0,8.4,0c0.6,1.9,0.7,41,0.3,45.2
		c-2.6,0-5.2,0-8.1,0c0,3.1,0,6,0,9.1c-15.1,0-29.8,0-44.8,0c0-2.8,0-5.5,0-8.4c-3,0-5.8,0-8.5,0c-0.6-1.9-0.7-42.5-0.1-45.4
		c2.5,0,5.1,0,8.1,0C361.9,440.8,361.9,437.9,361.9,435z M397.6,444.1c-8.8,0-17.4,0-26.2,0c0,14.9,0,29.6,0,44.3
		c4.7,0.4,24.4,0.3,26.2-0.2C397.6,473.6,397.6,459,397.6,444.1z"/>
	<path class="st1" d="M123.6,435c6.3,0,12.1,0,18.1,0c0,11.9,0,23.7,0,35.7c-2.8,0-5.4,0-8.4,0c0,3.1,0,6,0,9c-3,0-5.7,0-8.7,0
		c0,3,0,5.8,0,8.9c-3.2,0-6,0-9,0c0,3.1,0,5.9,0,8.9c-3.1,0-6,0-9.1,0c0-2.8,0-5.5,0-8.4c-3,0-5.9,0-9,0c0-3.1,0-5.9,0-9.1
		c-3,0-5.8,0-8.8,0c0-3,0-5.8,0-8.8c-3.1,0-5.9,0-8.6,0c-0.5-2-0.6-33.4-0.2-36.3c5.7,0,11.4,0,17.4,0c0,8.7,0,17.3,0,26.3
		c3.1,0,6,0,9,0c0,3.2,0,6.1,0,9.2c2.8,0,5.4,0,8.3,0c0.1-2.9,0.2-5.7,0.2-8.7c3,0,5.7,0,8.8,0C123.6,452.8,123.6,444,123.6,435z"/>
	<path class="st1" d="M303.7,442.6c0,6,0,11.8,0,17.8c0.8,0.1,1.7,0.1,2.5,0.1c7.1,0,14.2,0,21.4,0c0.9,0,1.7,0.1,2.7,0.1
		c0,3.1,0,6,0,9.2c-8.8,0-17.6,0-26.5,0c0,6.1,0,11.9,0,18c14.7,0,29.5,0,44.4,0c0,3.2,0,6.2,0,9.2c-20.9,0-41.6,0-62.6,0
		c0-21,0-42,0-63c1.8-0.5,59.9-0.6,62.6-0.1c0,2.7,0,5.5,0,8.6c-7.4,0-14.7,0-22.1,0C318.7,442.6,311.4,442.6,303.7,442.6z"/>
	<path class="st1" d="M627.8,497.1c0-21.2,0-42.1,0-63.2c20.9,0,41.6,0,62.8,0c0,1.4,0,2.9,0,4.3c0,1.4,0,2.7,0,4.4
		c-3,0.2-6,0.1-8.9,0.1c-3,0-5.9,0-8.9,0c-3,0-5.9,0-8.9,0c-3,0-5.9,0-8.9,0c-2.9,0-5.9,0-9,0c0,6,0,11.8,0,17.9
		c8.8,0,17.5,0,26.5,0c0,3.2,0,6.1,0,9.2c-2.1,0.5-4.4,0.2-6.6,0.2c-2.2,0.1-4.3,0-6.5,0c-2.2,0-4.5,0-6.7,0c-2.2,0-4.3,0-6.8,0
		c-0.3,6-0.1,11.8-0.1,17.9c14.9,0,29.6,0,44.5,0c0,3.2,0,6.1,0,9.2C669.5,497.1,648.7,497.1,627.8,497.1z"/>
	<path class="st1" d="M439.6,497.6c0-2.8,0-5.4,0-8.3c-2.9,0-5.7,0-8.8,0c0-3.1,0-6,0-9.1c-3.1,0-5.9,0-8.6,0
		c-0.6-1.9-0.7-24.5-0.1-27.4c2.6,0,5.3,0,8.2,0c0-3,0-5.8,0-8.9c3.1,0,5.9,0,8.9,0c0-3.1,0-5.9,0-8.8c15,0,29.7,0,44.8,0
		c0,1.4,0,2.8,0,4.3c0,1.3,0,2.7,0,4.3c-11.7,0-23.2,0-34.8,0c-0.7,3,0,5.9-0.5,8.9c-2.9,0-5.7,0-8.5,0c-0.6,2-0.6,24.3-0.1,26.9
		c2.6,0,5.3,0,8.3,0c0,3.1,0,6,0,9.1c6,0,11.7,0,17.6,0c0-5.7,0-11.3,0-17.2c-2.8,0-5.5,0-8.1,0c-0.7-1.9-0.7-7.1-0.2-9.5
		c8.6,0,17.2,0,25.8,0c0.5,1.9,0.8,29.1,0.3,35.5C482.3,497.9,444.4,498.1,439.6,497.6z"/>
	<path class="st1" d="M739.9,488.5c0-5.7,0-11.3,0-17.2c-5.9,0-11.7,0-17.5,0c-5.8,0-11.5,0-17.5,0c-0.6-3,0-5.9-0.4-9
		c-2.8,0-5.6,0-8.3,0c-0.5-2-0.6-15.2-0.2-18.3c2.5,0,5.1,0,8.1,0c0-3.1,0-5.9,0-8.9c12.1,0,23.8,0,35.8,0c0,2.7,0,5.4,0,8.4
		c3.2,0,6,0,9,0c0,3.1,0,5.9,0,8.8c-1.7,0.5-14.5,0.6-17.5,0.1c0-2.6,0-5.3,0-8c-1.9-0.5-13.2-0.7-17.4-0.3
		c-0.5,1.7-0.6,13.7-0.1,17.2c11.6,0,23.2,0,35.2,0c0,1.7,0,3.1,0,4.5c0,1.4,0,2.9,0,4.5c2.9,0,5.6,0,8.6,0
		c0.3,6.2,0.1,12.1,0.1,18.3c-2.8,0-5.4,0-8.3,0c0,3.1,0,6,0,9c-15,0-29.7,0-44.7,0c0-2.7,0-5.5,0-8.4c-3.1,0-5.9,0-8.8,0
		c0-3.1,0-6,0-9.1c5.7,0,11.5,0,17.5,0c0,2.7,0,5.5,0,8.4C722.3,488.5,731,488.5,739.9,488.5z"/>
	<path class="st1" d="M207.4,497.7c-17.7,0-35.2,0-53,0c-0.2-2.9,0-5.7-0.1-8.8c5.8,0,11.4,0,17,0c0.6-2,0.7-42,0.1-44.7
		c-5.6,0-11.2,0-17,0c0-3.2,0-6.1,0-9.2c17.6,0,35.2,0,53.1,0c0.2,2.7,0.1,5.4,0.1,8.5c-2.9,0.3-5.8,0.1-8.6,0.1c-2.9,0-5.7,0-8.5,0
		c-0.5,1.9-0.7,41.4-0.2,44.8c5.6,0,11.4,0,17.1,0C207.4,491.7,207.4,494.7,207.4,497.7z"/>
	<path d="M97.1,340.8c-8.3,0.5-17.7-7-17.6-17.7c0-9.7,7.9-17.7,17.7-17.7c10,0,18,8.3,17.9,17.8C115,333.1,106.3,341.4,97.1,340.8z
		"/>
	<path d="M746.1,340.8c-8.3,0.5-17.7-7-17.7-17.6c0-9.8,8.1-17.9,17.8-17.8c10,0.1,17.7,8.4,17.7,17.7
		C764,333.1,755.2,341.3,746.1,340.8z"/>
	<path d="M521.8,518.3c-1.4,1.4-2.6,2.7-3.9,4.1c-0.6-0.5-1.2-1-1.8-1.5c-3.3-2.4-6.9-3.2-10.9-1.8c-4.1,1.4-6.8,5.6-6.6,9.9
		c0.2,4.4,3.3,8.4,7.5,9.6c4.5,1.2,8.5,0.1,10.7-3.2c0.2-0.2,0.3-0.5,0.5-1.2c-1.6,0-2.9,0-4.2,0c-1.3,0-2.5,0-3.9,0
		c-0.6-1.9-0.2-3.6-0.3-5.5c5.1,0,10.1,0,15.4,0c-0.1,1.1-0.1,2.2-0.2,3.3c-1.1,7.8-7.8,13.2-15.7,12.7c-8.1-0.5-13.7-5.4-15.3-13.1
		c-1.8-8.8,4.2-17.3,13.1-18.5c5.8-0.8,10.9,0.5,15.2,4.6C521.4,517.9,521.6,518.1,521.8,518.3C521.8,518.3,521.8,518.4,521.8,518.3
		z"/>
	<path d="M559.4,528.7c0,8.8-7,16-15.7,16c-8.8,0-15.8-7.1-15.8-15.9c0-8.8,7-15.9,15.8-16C552.1,512.7,559.3,519.9,559.4,528.7z
		 M533.8,528.7c0,4.2,1.8,7.5,5.3,9.2c3.5,1.7,7,1.6,10.2-0.8c5.1-3.8,5.5-11.7,0.8-16c-2.3-2.1-5.1-3-8.2-2.4
		C536.9,519.6,533.9,523.4,533.8,528.7z"/>
	<path d="M576.5,544c0-10.2,0-20.1,0-30.1c0.5-0.1,1-0.2,1.5-0.2c3.5,0.1,7,0,10.5,0.3c6.5,0.7,10,4.8,11.5,10.8
		c0.9,3.5,0.7,7.1-0.6,10.6c-1.7,4.5-4.8,7.7-9.7,8.2C585.3,544,581,543.8,576.5,544z M582.5,519.1c0,6.6,0,12.7,0,19
		c1.7,0,3.3,0.1,4.9,0c3.3-0.2,5.5-1.9,6.5-5c0.8-2.6,0.9-5.2,0.1-7.8c-0.9-2.9-2.7-4.9-5.7-5.5
		C586.4,519.4,584.5,519.3,582.5,519.1z"/>
	<path d="M736.1,537.7c-0.8,2-1.6,4-2.5,6.1c-2,0-3.8,0-6.1,0c3.9-10.1,7.7-20,11.5-30c2,0,4,0,6.2,0c3.8,9.9,7.6,19.9,11.5,30
		c-2.1,0-4,0-6.1,0c-0.8-1.9-1.6-3.9-2.4-6C744.3,537.7,740.4,537.7,736.1,537.7z M746,531.7c-1.2-3.2-2.4-6.3-3.8-9.9
		c-1.4,3.6-2.6,6.7-3.8,9.9C741,531.7,743.3,531.7,746,531.7z"/>
	<path d="M648.2,513.7c2.1,0,4,0,6.1,0c3.8,10,7.6,19.9,11.5,30.1c-2.2,0-4,0-6,0c-0.8-1.9-1.6-4-2.5-6.1c-3.9,0-7.8,0-12,0
		c-0.8,2-1.7,4-2.5,6.1c-1.9,0-3.8,0-6.1,0C640.6,533.7,644.4,523.8,648.2,513.7z M655.1,531.7c-1.2-3.2-2.4-6.3-3.6-9.3
		c-1.5,3.1-2.9,6.1-3.9,9.3C650.3,531.7,652.5,531.7,655.1,531.7z"/>
	<path d="M451.4,534.7c1.3,1.4,2.6,2.7,3.8,4c-6.9,8.1-19.1,7.4-24.9,1.2c-6-6.4-5.7-17.4,0.9-23.1c8.3-7,19.6-4,23.8,1.9
		c-1.1,1.3-2.3,2.7-3.5,4.1c-0.8-0.6-1.4-1.1-2-1.6c-3-2.3-6.3-3.4-10.1-2.4c-4.4,1.1-7.6,5.2-7.6,9.9c0,4.9,3,8.8,7.5,9.9
		c3.5,0.9,6.6,0.2,9.5-1.9C449.7,536.1,450.5,535.4,451.4,534.7z"/>
	<path d="M488.7,513.6c0,2,0,3.7,0,5.7c-3.5,0-6.9,0-10.5,0c0,1.9,0,3.5,0,5.4c3.5,0,6.9,0,10.5,0c0,1.9,0,3.6,0,5.6
		c-3.5,0-6.8,0-10.4,0c0,2.7,0,5.1,0,7.9c3.4,0,6.9,0,10.4,0c0,2,0,3.7,0,5.3c-1.6,0.5-13.7,0.6-16.4,0.1c0-9.8,0-19.7,0-29.9
		c2.7-0.1,5.4,0,8,0C483.1,513.6,485.8,513.6,488.7,513.6z"/>
	<path d="M622.2,538.2c0,2.1,0,3.7,0,5.5c-5.5,0-10.9,0-16.4,0c0-10,0-20,0-30c5.5,0,10.9,0,16.4,0c0,1.8,0,3.5,0,5.5
		c-3.5,0-6.9,0-10.5,0c0,1.9,0,3.5,0,5.4c3.5,0,6.9,0,10.4,0c0,1.9,0,3.6,0,5.6c-3.4,0-6.8,0-10.4,0c0,2.7,0,5.2,0,8
		C615.2,538.2,618.6,538.2,622.2,538.2z"/>
	<path d="M684.6,543.8c-2,0-3.8,0-5.8,0c-3.5-9.9-7-19.9-10.6-30.1c2.1,0,3.9,0,6,0c2.4,6.7,4.8,13.6,7.3,20.4c0.1,0,0.3,0,0.4,0
		c2.5-6.8,4.9-13.6,7.4-20.4c2,0,3.9,0,6,0C691.7,523.8,688.2,533.7,684.6,543.8z"/>
	<path d="M717.4,513.6c0,8.3,0,16.3,0,24.5c2.8,0,5.3,0,8.1,0c0,2,0,3.7,0,5.6c-4.6,0-9.1,0-13.9,0c0-9.9,0-19.9,0-30.1
		c1,0,1.9,0,2.8,0C715.4,513.6,716.2,513.6,717.4,513.6z"/>
	<path d="M699.4,513.7c1.9,0,3.7,0,5.6,0c0,10,0,19.9,0,30c-1.8,0-3.6,0-5.6,0C699.4,533.8,699.4,523.9,699.4,513.7z"/>
	<path d="M460.1,543.7c0-10,0-19.9,0-30.1c1,0,1.9,0,2.9,0c0.9,0,1.7,0,2.7,0c0,10.1,0,20,0,30.1C464,543.7,462.2,543.7,460.1,543.7
		z"/>
	<path d="M648,511c1.6-2.7,3.1-5.3,4.7-7.8c2.1,0,4.1,0,6.5,0c-0.4,0.5-0.6,1-1,1.4c-1.3,1.5-2.8,2.8-4,4.4
		C652.7,511,650.8,511.7,648,511z"/>
</g>
</svg>
